# xmcd CD database file generated by Grip 3.2.0
# 
# Track frame offsets:
#       150
#       15900
#       29280
#       45688
#       59712
#       76040
#       91304
#       102251
#       118397
#       134852
#       151370
#       170049
# 
# Disc length: 2612 seconds
# 
# Revision: 1
# Processed by: cddbd v1.5.1PL0 Copyright (c) Steve Scherf et al.
# Submitted via: Grip 3.2.0
# 
DISCID=9f0a320c
DTITLE=Sensitive New Age Cowpersons - Meanwhile, Back At The Ranch
DYEAR=2004
DGENRE=Folk
TTITLE0=Love Is In The Air
TTITLE1=Daddy Wore a Mullet
TTITLE2=Howzat
TTITLE3=Pulling Myself Together
TTITLE4=Burning Love
TTITLE5=You Love Me
TTITLE6=Twangin' The Wires
TTITLE7=Doc Met The Devil
TTITLE8=It Takes Just One Prick
TTITLE9=You've Lost That Loving Feeling
TTITLE10=They Never Mention The Flies
TTITLE11=The Sound Of Music
EXTD=
EXTT0=
EXTT1=
EXTT2=
EXTT3=
EXTT4=
EXTT5=
EXTT6=
EXTT7=
EXTT8=
EXTT9=
EXTT10=
EXTT11=
PLAYORDER=
